<svg width="15" height="15" viewBox="0 0 15 15" fill="none" xmlns="http://www.w3.org/2000/svg">
<path d="M7.3335 4.1438C5.3335 4.1438 3.73975 5.7688 3.73975 7.73755C3.73975 9.73755 5.3335 11.3313 7.3335 11.3313C9.30225 11.3313 10.9272 9.73755 10.9272 7.73755C10.9272 5.7688 9.30225 4.1438 7.3335 4.1438ZM7.3335 10.0813C6.05225 10.0813 4.98975 9.05005 4.98975 7.73755C4.98975 6.4563 6.021 5.42505 7.3335 5.42505C8.61475 5.42505 9.646 6.4563 9.646 7.73755C9.646 9.05005 8.61475 10.0813 7.3335 10.0813ZM11.896 4.0188C11.896 3.55005 11.521 3.17505 11.0522 3.17505C10.5835 3.17505 10.2085 3.55005 10.2085 4.0188C10.2085 4.48755 10.5835 4.86255 11.0522 4.86255C11.521 4.86255 11.896 4.48755 11.896 4.0188ZM14.271 4.86255C14.2085 3.73755 13.9585 2.73755 13.146 1.92505C12.3335 1.11255 11.3335 0.862549 10.2085 0.800049C9.05225 0.737549 5.5835 0.737549 4.42725 0.800049C3.30225 0.862549 2.3335 1.11255 1.48975 1.92505C0.677246 2.73755 0.427246 3.73755 0.364746 4.86255C0.302246 6.0188 0.302246 9.48755 0.364746 10.6438C0.427246 11.7688 0.677246 12.7375 1.48975 13.5813C2.3335 14.3938 3.30225 14.6438 4.42725 14.7063C5.5835 14.7688 9.05225 14.7688 10.2085 14.7063C11.3335 14.6438 12.3335 14.3938 13.146 13.5813C13.9585 12.7375 14.2085 11.7688 14.271 10.6438C14.3335 9.48755 14.3335 6.0188 14.271 4.86255ZM12.771 11.8625C12.5522 12.4875 12.0522 12.9563 11.4585 13.2063C10.521 13.5813 8.3335 13.4875 7.3335 13.4875C6.30225 13.4875 4.11475 13.5813 3.2085 13.2063C2.5835 12.9563 2.11475 12.4875 1.86475 11.8625C1.48975 10.9563 1.5835 8.7688 1.5835 7.73755C1.5835 6.73755 1.48975 4.55005 1.86475 3.61255C2.11475 3.0188 2.5835 2.55005 3.2085 2.30005C4.11475 1.92505 6.30225 2.0188 7.3335 2.0188C8.3335 2.0188 10.521 1.92505 11.4585 2.30005C12.0522 2.5188 12.521 3.0188 12.771 3.61255C13.146 4.55005 13.0522 6.73755 13.0522 7.73755C13.0522 8.7688 13.146 10.9563 12.771 11.8625Z" fill="#5A7184"/>
</svg>
