<svg width="15" height="15" viewBox="0 0 15 15" fill="none" xmlns="http://www.w3.org/2000/svg">
<path d="M13.3335 0.737549H1.30225C0.770996 0.737549 0.333496 1.2063 0.333496 1.7688V13.7375C0.333496 14.3 0.770996 14.7375 1.30225 14.7375H13.3335C13.8647 14.7375 14.3335 14.3 14.3335 13.7375V1.7688C14.3335 1.2063 13.8647 0.737549 13.3335 0.737549ZM4.55225 12.7375H2.48975V6.0813H4.55225V12.7375ZM3.521 5.1438C2.8335 5.1438 2.30225 4.61255 2.30225 3.9563C2.30225 3.30005 2.8335 2.73755 3.521 2.73755C4.17725 2.73755 4.7085 3.30005 4.7085 3.9563C4.7085 4.61255 4.17725 5.1438 3.521 5.1438ZM12.3335 12.7375H10.2397V9.48755C10.2397 8.73755 10.2397 7.73755 9.17725 7.73755C8.0835 7.73755 7.92725 8.5813 7.92725 9.4563V12.7375H5.86475V6.0813H7.8335V6.98755H7.86475C8.146 6.4563 8.8335 5.8938 9.8335 5.8938C11.9272 5.8938 12.3335 7.30005 12.3335 9.0813V12.7375Z" fill="#5A7184"/>
</svg>
