<svg width="17" height="14" viewBox="0 0 17 14" fill="none" xmlns="http://www.w3.org/2000/svg">
<path d="M14.6772 3.48755C15.3022 3.0188 15.8647 2.4563 16.3022 1.80005C15.7397 2.05005 15.0835 2.23755 14.4272 2.30005C15.1147 1.8938 15.6147 1.2688 15.8647 0.487549C15.2397 0.862549 14.521 1.1438 13.8022 1.30005C13.1772 0.643799 12.3335 0.268799 11.396 0.268799C9.5835 0.268799 8.11475 1.73755 8.11475 3.55005C8.11475 3.80005 8.146 4.05005 8.2085 4.30005C5.48975 4.1438 3.05225 2.8313 1.42725 0.862549C1.146 1.3313 0.989746 1.8938 0.989746 2.5188C0.989746 3.6438 1.55225 4.6438 2.4585 5.23755C1.92725 5.2063 1.396 5.0813 0.958496 4.8313V4.86255C0.958496 6.4563 2.0835 7.7688 3.5835 8.0813C3.3335 8.1438 3.021 8.2063 2.73975 8.2063C2.521 8.2063 2.3335 8.17505 2.11475 8.1438C2.521 9.4563 3.73975 10.3938 5.17725 10.425C4.05225 11.3 2.646 11.8313 1.11475 11.8313C0.833496 11.8313 0.583496 11.8 0.333496 11.7688C1.771 12.7063 3.48975 13.2375 5.36475 13.2375C11.396 13.2375 14.6772 8.2688 14.6772 3.92505C14.6772 3.7688 14.6772 3.6438 14.6772 3.48755Z" fill="#5A7184"/>
</svg>
